ISO-10303-21;
HEADER;
/* Generated by software containing ST-Developer
 * from STEP Tools, Inc. (www.steptools.com) 
 */
/* OPTION: using custom renumber hook */

FILE_DESCRIPTION(
/* description */ ('STEP AP242 Edition 2',
'CAx-IF Rec.Pracs.---Representation and Presentation of Product Manufa
cturing Information (PMI)---4.0---2014-10-13',
'CAx-IF Rec.Pracs.---3D Tessellated Geometry---0.4---2014-09-14','2;1',
'CAx-IF Rec.Pracs.---User Defined Attributes---1.5---2016-08-15'),
/* implementation_level */ '2;1');

FILE_NAME(
/* name */ 'Part Studio 1 - Cap',
/* time_stamp */ '2026-09-19T08:19:28Z',
/* author */ (''),
/* organization */ (''),
/* preprocessor_version */ 'ST-DEVELOPER v20',
/* originating_system */ 'ONSHAPE BY PTC INC, 1.221',
/* authorisation */ '  ');

FILE_SCHEMA (('AP242_MANAGED_MODEL_BASED_3D_ENGINEERING_MIM_LF { 1 0 10303 442 3 1 4 }'));
ENDSEC;

DATA;
#10=SHAPE_REPRESENTATION_RELATIONSHIP('','',#383,#11);
#11=ADVANCED_BREP_SHAPE_REPRESENTATION('',(#381),#753);
#12=CONICAL_SURFACE('',#439,0.00127,0.785398163397448);
#13=CONICAL_SURFACE('',#440,0.00167,0.785398163397448);
#14=CONICAL_SURFACE('',#441,0.00127,0.785398163397448);
#15=CONICAL_SURFACE('',#442,0.00167,0.785398163397445);
#16=ELLIPSE('',#427,0.00200022498734517,0.002);
#17=ELLIPSE('',#428,0.00200022498734517,0.002);
#18=ELLIPSE('',#430,0.00200022498734517,0.002);
#19=ELLIPSE('',#432,0.00200022498734517,0.002);
#20=ELLIPSE('',#433,0.00200022498734516,0.002);
#21=ELLIPSE('',#434,0.00200022498734517,0.002);
#22=ELLIPSE('',#436,0.00200022498734516,0.002);
#23=ELLIPSE('',#438,0.00200022498734517,0.002);
#24=(
BOUNDED_SURFACE()
B_SPLINE_SURFACE(3,2,((#652,#653,#654),(#655,#656,#657),(#658,#659,#660),
(#661,#662,#663),(#664,#665,#666),(#667,#668,#669),(#670,#671,#672)),
 .UNSPECIFIED.,.F.,.F.,.F.)
B_SPLINE_SURFACE_WITH_KNOTS((4,1,1,1,4),(3,3),(6.28318530717959,6.67588438887831,
7.06858347057703,7.46128255227576,7.85398163397448),(0.,1.),
 .UNSPECIFIED.)
GEOMETRIC_REPRESENTATION_ITEM()
RATIONAL_B_SPLINE_SURFACE(((1.,0.7071067811863,1.),(1.,0.707112761313541,
1.),(1.,0.746569103474375,1.),(1.,0.869029714958779,1.),(1.,0.973464459394558,
1.),(1.,0.999999464296843,1.),(1.,1.,1.)))
REPRESENTATION_ITEM('')
SURFACE()
);
#25=(
BOUNDED_SURFACE()
B_SPLINE_SURFACE(3,2,((#679,#680,#681),(#682,#683,#684),(#685,#686,#687),
(#688,#689,#690),(#691,#692,#693),(#694,#695,#696),(#697,#698,#699)),
 .UNSPECIFIED.,.F.,.F.,.F.)
B_SPLINE_SURFACE_WITH_KNOTS((4,1,1,1,4),(3,3),(6.28318530717959,6.67588438887831,
7.06858347057703,7.46128255227576,7.85398163397448),(0.,1.),
 .UNSPECIFIED.)
GEOMETRIC_REPRESENTATION_ITEM()
RATIONAL_B_SPLINE_SURFACE(((1.,0.707106781187098,1.),(1.,0.707112761314228,
1.),(1.,0.746569103475359,1.),(1.,0.869029714959247,1.),(1.,0.973464459394863,
1.),(1.,0.999999464296955,1.),(1.,1.,1.)))
REPRESENTATION_ITEM('')
SURFACE()
);
#26=(
BOUNDED_SURFACE()
B_SPLINE_SURFACE(3,2,((#701,#702,#703),(#704,#705,#706),(#707,#708,#709),
(#710,#711,#712),(#713,#714,#715),(#716,#717,#718),(#719,#720,#721)),
 .UNSPECIFIED.,.F.,.F.,.F.)
B_SPLINE_SURFACE_WITH_KNOTS((4,1,1,1,4),(3,3),(6.28318530717959,6.67588438887831,
7.06858347057703,7.46128255227576,7.85398163397448),(0.,1.),
 .UNSPECIFIED.)
GEOMETRIC_REPRESENTATION_ITEM()
RATIONAL_B_SPLINE_SURFACE(((1.,0.707106781186696,1.),(1.,0.70711276131408,
1.),(1.,0.746569103474765,1.),(1.,0.869029714959016,1.),(1.,0.973464459394668,
1.),(1.,0.999999464296876,1.),(1.,1.,1.)))
REPRESENTATION_ITEM('')
SURFACE()
);
#27=(
BOUNDED_SURFACE()
B_SPLINE_SURFACE(3,2,((#727,#728,#729),(#730,#731,#732),(#733,#734,#735),
(#736,#737,#738),(#739,#740,#741),(#742,#743,#744),(#745,#746,#747)),
 .UNSPECIFIED.,.F.,.F.,.F.)
B_SPLINE_SURFACE_WITH_KNOTS((4,1,1,1,4),(3,3),(6.28318530717959,6.67588438887831,
7.06858347057703,7.46128255227576,7.85398163397448),(0.,1.),
 .UNSPECIFIED.)
GEOMETRIC_REPRESENTATION_ITEM()
RATIONAL_B_SPLINE_SURFACE(((1.,0.707106781186643,1.),(1.,0.707112761313892,
1.),(1.,0.746569103474732,1.),(1.,0.869029714958932,1.),(1.,0.973464459394629,
1.),(1.,0.999999464296875,1.),(1.,1.,1.)))
REPRESENTATION_ITEM('')
SURFACE()
);
#28=CYLINDRICAL_SURFACE('',#395,0.00127);
#29=CYLINDRICAL_SURFACE('',#398,0.00207);
#30=CYLINDRICAL_SURFACE('',#403,0.00207);
#31=CYLINDRICAL_SURFACE('',#405,0.00127);
#32=CYLINDRICAL_SURFACE('',#410,0.00127);
#33=CYLINDRICAL_SURFACE('',#413,0.00207);
#34=CYLINDRICAL_SURFACE('',#418,0.00207);
#35=CYLINDRICAL_SURFACE('',#420,0.00127);
#36=CYLINDRICAL_SURFACE('',#429,0.002);
#37=CYLINDRICAL_SURFACE('',#431,0.002);
#38=CYLINDRICAL_SURFACE('',#435,0.002);
#39=CYLINDRICAL_SURFACE('',#437,0.002);
#40=LINE('',#578,#48);
#41=LINE('',#582,#49);
#42=LINE('',#586,#50);
#43=LINE('',#590,#51);
#44=LINE('',#596,#52);
#45=LINE('',#599,#53);
#46=LINE('',#601,#54);
#47=LINE('',#603,#55);
#48=VECTOR('',#453,1.);
#49=VECTOR('',#456,1.);
#50=VECTOR('',#459,1.);
#51=VECTOR('',#462,1.);
#52=VECTOR('',#469,1.);
#53=VECTOR('',#470,1.);
#54=VECTOR('',#471,1.);
#55=VECTOR('',#472,1.);
#56=ORIENTED_EDGE('',*,*,#136,.F.);
#57=ORIENTED_EDGE('',*,*,#137,.T.);
#58=ORIENTED_EDGE('',*,*,#138,.F.);
#59=ORIENTED_EDGE('',*,*,#139,.T.);
#60=ORIENTED_EDGE('',*,*,#140,.F.);
#61=ORIENTED_EDGE('',*,*,#141,.F.);
#62=ORIENTED_EDGE('',*,*,#142,.F.);
#63=ORIENTED_EDGE('',*,*,#143,.T.);
#64=ORIENTED_EDGE('',*,*,#144,.F.);
#65=ORIENTED_EDGE('',*,*,#145,.T.);
#66=ORIENTED_EDGE('',*,*,#146,.T.);
#67=ORIENTED_EDGE('',*,*,#147,.F.);
#68=ORIENTED_EDGE('',*,*,#148,.T.);
#69=ORIENTED_EDGE('',*,*,#149,.T.);
#70=ORIENTED_EDGE('',*,*,#150,.T.);
#71=ORIENTED_EDGE('',*,*,#151,.T.);
#72=ORIENTED_EDGE('',*,*,#152,.T.);
#73=ORIENTED_EDGE('',*,*,#153,.T.);
#74=ORIENTED_EDGE('',*,*,#154,.T.);
#75=ORIENTED_EDGE('',*,*,#137,.F.);
#76=ORIENTED_EDGE('',*,*,#155,.T.);
#77=ORIENTED_EDGE('',*,*,#154,.F.);
#78=ORIENTED_EDGE('',*,*,#153,.F.);
#79=ORIENTED_EDGE('',*,*,#156,.F.);
#80=ORIENTED_EDGE('',*,*,#136,.T.);
#81=ORIENTED_EDGE('',*,*,#157,.T.);
#82=ORIENTED_EDGE('',*,*,#158,.F.);
#83=ORIENTED_EDGE('',*,*,#159,.T.);
#84=ORIENTED_EDGE('',*,*,#156,.T.);
#85=ORIENTED_EDGE('',*,*,#160,.T.);
#86=ORIENTED_EDGE('',*,*,#161,.T.);
#87=ORIENTED_EDGE('',*,*,#162,.T.);
#88=ORIENTED_EDGE('',*,*,#146,.F.);
#89=ORIENTED_EDGE('',*,*,#163,.T.);
#90=ORIENTED_EDGE('',*,*,#162,.F.);
#91=ORIENTED_EDGE('',*,*,#161,.F.);
#92=ORIENTED_EDGE('',*,*,#164,.F.);
#93=ORIENTED_EDGE('',*,*,#147,.T.);
#94=ORIENTED_EDGE('',*,*,#165,.T.);
#95=ORIENTED_EDGE('',*,*,#166,.F.);
#96=ORIENTED_EDGE('',*,*,#167,.T.);
#97=ORIENTED_EDGE('',*,*,#164,.T.);
#98=ORIENTED_EDGE('',*,*,#158,.T.);
#99=ORIENTED_EDGE('',*,*,#166,.T.);
#100=ORIENTED_EDGE('',*,*,#168,.F.);
#101=ORIENTED_EDGE('',*,*,#142,.T.);
#102=ORIENTED_EDGE('',*,*,#169,.F.);
#103=ORIENTED_EDGE('',*,*,#169,.T.);
#104=ORIENTED_EDGE('',*,*,#141,.T.);
#105=ORIENTED_EDGE('',*,*,#170,.F.);
#106=ORIENTED_EDGE('',*,*,#151,.F.);
#107=ORIENTED_EDGE('',*,*,#168,.T.);
#108=ORIENTED_EDGE('',*,*,#150,.F.);
#109=ORIENTED_EDGE('',*,*,#171,.F.);
#110=ORIENTED_EDGE('',*,*,#143,.F.);
#111=ORIENTED_EDGE('',*,*,#170,.T.);
#112=ORIENTED_EDGE('',*,*,#140,.T.);
#113=ORIENTED_EDGE('',*,*,#172,.F.);
#114=ORIENTED_EDGE('',*,*,#144,.T.);
#115=ORIENTED_EDGE('',*,*,#171,.T.);
#116=ORIENTED_EDGE('',*,*,#173,.F.);
#117=ORIENTED_EDGE('',*,*,#172,.T.);
#118=ORIENTED_EDGE('',*,*,#139,.F.);
#119=ORIENTED_EDGE('',*,*,#174,.F.);
#120=ORIENTED_EDGE('',*,*,#148,.F.);
#121=ORIENTED_EDGE('',*,*,#173,.T.);
#122=ORIENTED_EDGE('',*,*,#149,.F.);
#123=ORIENTED_EDGE('',*,*,#175,.F.);
#124=ORIENTED_EDGE('',*,*,#145,.F.);
#125=ORIENTED_EDGE('',*,*,#138,.T.);
#126=ORIENTED_EDGE('',*,*,#175,.T.);
#127=ORIENTED_EDGE('',*,*,#174,.T.);
#128=ORIENTED_EDGE('',*,*,#167,.F.);
#129=ORIENTED_EDGE('',*,*,#165,.F.);
#130=ORIENTED_EDGE('',*,*,#160,.F.);
#131=ORIENTED_EDGE('',*,*,#163,.F.);
#132=ORIENTED_EDGE('',*,*,#159,.F.);
#133=ORIENTED_EDGE('',*,*,#157,.F.);
#134=ORIENTED_EDGE('',*,*,#152,.F.);
#135=ORIENTED_EDGE('',*,*,#155,.F.);
#136=EDGE_CURVE('',#176,#176,#208,.T.);
#137=EDGE_CURVE('',#177,#177,#209,.T.);
#138=EDGE_CURVE('',#178,#179,#210,.T.);
#139=EDGE_CURVE('',#178,#180,#40,.T.);
#140=EDGE_CURVE('',#181,#180,#211,.T.);
#141=EDGE_CURVE('',#182,#181,#41,.T.);
#142=EDGE_CURVE('',#183,#182,#212,.T.);
#143=EDGE_CURVE('',#183,#184,#42,.T.);
#144=EDGE_CURVE('',#185,#184,#213,.T.);
#145=EDGE_CURVE('',#185,#179,#43,.T.);
#146=EDGE_CURVE('',#186,#186,#214,.T.);
#147=EDGE_CURVE('',#187,#187,#215,.T.);
#148=EDGE_CURVE('',#188,#189,#44,.F.);
#149=EDGE_CURVE('',#189,#190,#45,.F.);
#150=EDGE_CURVE('',#190,#191,#46,.F.);
#151=EDGE_CURVE('',#191,#188,#47,.T.);
#152=EDGE_CURVE('',#192,#192,#216,.F.);
#153=EDGE_CURVE('',#193,#193,#217,.T.);
#154=EDGE_CURVE('',#194,#194,#218,.T.);
#155=EDGE_CURVE('',#195,#195,#219,.T.);
#156=EDGE_CURVE('',#196,#196,#220,.T.);
#157=EDGE_CURVE('',#197,#197,#221,.F.);
#158=EDGE_CURVE('',#198,#198,#222,.T.);
#159=EDGE_CURVE('',#199,#199,#223,.T.);
#160=EDGE_CURVE('',#200,#200,#224,.F.);
#161=EDGE_CURVE('',#201,#201,#225,.T.);
#162=EDGE_CURVE('',#202,#202,#226,.T.);
#163=EDGE_CURVE('',#203,#203,#227,.T.);
#164=EDGE_CURVE('',#204,#204,#228,.T.);
#165=EDGE_CURVE('',#205,#205,#229,.F.);
#166=EDGE_CURVE('',#206,#206,#230,.T.);
#167=EDGE_CURVE('',#207,#207,#231,.T.);
#168=EDGE_CURVE('',#183,#191,#16,.F.);
#169=EDGE_CURVE('',#191,#182,#17,.T.);
#170=EDGE_CURVE('',#188,#181,#18,.T.);
#171=EDGE_CURVE('',#184,#190,#19,.F.);
#172=EDGE_CURVE('',#188,#180,#20,.T.);
#173=EDGE_CURVE('',#185,#190,#21,.F.);
#174=EDGE_CURVE('',#189,#178,#22,.T.);
#175=EDGE_CURVE('',#179,#189,#23,.F.);
#176=VERTEX_POINT('',#572);
#177=VERTEX_POINT('',#574);
#178=VERTEX_POINT('',#576);
#179=VERTEX_POINT('',#577);
#180=VERTEX_POINT('',#579);
#181=VERTEX_POINT('',#581);
#182=VERTEX_POINT('',#583);
#183=VERTEX_POINT('',#585);
#184=VERTEX_POINT('',#587);
#185=VERTEX_POINT('',#589);
#186=VERTEX_POINT('',#592);
#187=VERTEX_POINT('',#594);
#188=VERTEX_POINT('',#597);
#189=VERTEX_POINT('',#598);
#190=VERTEX_POINT('',#600);
#191=VERTEX_POINT('',#602);
#192=VERTEX_POINT('',#606);
#193=VERTEX_POINT('',#608);
#194=VERTEX_POINT('',#611);
#195=VERTEX_POINT('',#614);
#196=VERTEX_POINT('',#618);
#197=VERTEX_POINT('',#621);
#198=VERTEX_POINT('',#623);
#199=VERTEX_POINT('',#626);
#200=VERTEX_POINT('',#629);
#201=VERTEX_POINT('',#631);
#202=VERTEX_POINT('',#634);
#203=VERTEX_POINT('',#637);
#204=VERTEX_POINT('',#641);
#205=VERTEX_POINT('',#644);
#206=VERTEX_POINT('',#646);
#207=VERTEX_POINT('',#649);
#208=CIRCLE('',#386,0.00207);
#209=CIRCLE('',#387,0.00207);
#210=CIRCLE('',#388,0.00197);
#211=CIRCLE('',#389,0.00197);
#212=CIRCLE('',#390,0.00197);
#213=CIRCLE('',#391,0.00197);
#214=CIRCLE('',#392,0.00207);
#215=CIRCLE('',#393,0.00207);
#216=CIRCLE('',#396,0.00127);
#217=CIRCLE('',#397,0.00127);
#218=CIRCLE('',#399,0.00207);
#219=CIRCLE('',#401,0.00167);
#220=CIRCLE('',#404,0.00207);
#221=CIRCLE('',#406,0.00127);
#222=CIRCLE('',#407,0.00127);
#223=CIRCLE('',#409,0.00167);
#224=CIRCLE('',#411,0.00127);
#225=CIRCLE('',#412,0.00127);
#226=CIRCLE('',#414,0.00207);
#227=CIRCLE('',#416,0.00167);
#228=CIRCLE('',#419,0.00207);
#229=CIRCLE('',#421,0.00127);
#230=CIRCLE('',#422,0.00127);
#231=CIRCLE('',#424,0.00167);
#232=EDGE_LOOP('',(#56));
#233=EDGE_LOOP('',(#57));
#234=EDGE_LOOP('',(#58,#59,#60,#61,#62,#63,#64,#65));
#235=EDGE_LOOP('',(#66));
#236=EDGE_LOOP('',(#67));
#237=EDGE_LOOP('',(#68,#69,#70,#71));
#238=EDGE_LOOP('',(#72));
#239=EDGE_LOOP('',(#73));
#240=EDGE_LOOP('',(#74));
#241=EDGE_LOOP('',(#75));
#242=EDGE_LOOP('',(#76));
#243=EDGE_LOOP('',(#77));
#244=EDGE_LOOP('',(#78));
#245=EDGE_LOOP('',(#79));
#246=EDGE_LOOP('',(#80));
#247=EDGE_LOOP('',(#81));
#248=EDGE_LOOP('',(#82));
#249=EDGE_LOOP('',(#83));
#250=EDGE_LOOP('',(#84));
#251=EDGE_LOOP('',(#85));
#252=EDGE_LOOP('',(#86));
#253=EDGE_LOOP('',(#87));
#254=EDGE_LOOP('',(#88));
#255=EDGE_LOOP('',(#89));
#256=EDGE_LOOP('',(#90));
#257=EDGE_LOOP('',(#91));
#258=EDGE_LOOP('',(#92));
#259=EDGE_LOOP('',(#93));
#260=EDGE_LOOP('',(#94));
#261=EDGE_LOOP('',(#95));
#262=EDGE_LOOP('',(#96));
#263=EDGE_LOOP('',(#97));
#264=EDGE_LOOP('',(#98));
#265=EDGE_LOOP('',(#99));
#266=EDGE_LOOP('',(#100,#101,#102));
#267=EDGE_LOOP('',(#103,#104,#105,#106));
#268=EDGE_LOOP('',(#107,#108,#109,#110));
#269=EDGE_LOOP('',(#111,#112,#113));
#270=EDGE_LOOP('',(#114,#115,#116));
#271=EDGE_LOOP('',(#117,#118,#119,#120));
#272=EDGE_LOOP('',(#121,#122,#123,#124));
#273=EDGE_LOOP('',(#125,#126,#127));
#274=EDGE_LOOP('',(#128));
#275=EDGE_LOOP('',(#129));
#276=EDGE_LOOP('',(#130));
#277=EDGE_LOOP('',(#131));
#278=EDGE_LOOP('',(#132));
#279=EDGE_LOOP('',(#133));
#280=EDGE_LOOP('',(#134));
#281=EDGE_LOOP('',(#135));
#282=FACE_BOUND('',#232,.T.);
#283=FACE_BOUND('',#233,.T.);
#284=FACE_BOUND('',#234,.T.);
#285=FACE_BOUND('',#235,.T.);
#286=FACE_BOUND('',#236,.T.);
#287=FACE_BOUND('',#237,.T.);
#288=FACE_BOUND('',#238,.T.);
#289=FACE_BOUND('',#239,.T.);
#290=FACE_BOUND('',#240,.T.);
#291=FACE_BOUND('',#241,.T.);
#292=FACE_BOUND('',#242,.T.);
#293=FACE_BOUND('',#243,.T.);
#294=FACE_BOUND('',#244,.T.);
#295=FACE_BOUND('',#245,.T.);
#296=FACE_BOUND('',#246,.T.);
#297=FACE_BOUND('',#247,.T.);
#298=FACE_BOUND('',#248,.T.);
#299=FACE_BOUND('',#249,.T.);
#300=FACE_BOUND('',#250,.T.);
#301=FACE_BOUND('',#251,.T.);
#302=FACE_BOUND('',#252,.T.);
#303=FACE_BOUND('',#253,.T.);
#304=FACE_BOUND('',#254,.T.);
#305=FACE_BOUND('',#255,.T.);
#306=FACE_BOUND('',#256,.T.);
#307=FACE_BOUND('',#257,.T.);
#308=FACE_BOUND('',#258,.T.);
#309=FACE_BOUND('',#259,.T.);
#310=FACE_BOUND('',#260,.T.);
#311=FACE_BOUND('',#261,.T.);
#312=FACE_BOUND('',#262,.T.);
#313=FACE_BOUND('',#263,.T.);
#314=FACE_BOUND('',#264,.T.);
#315=FACE_BOUND('',#265,.T.);
#316=FACE_BOUND('',#266,.T.);
#317=FACE_BOUND('',#267,.T.);
#318=FACE_BOUND('',#268,.T.);
#319=FACE_BOUND('',#269,.T.);
#320=FACE_BOUND('',#270,.T.);
#321=FACE_BOUND('',#271,.T.);
#322=FACE_BOUND('',#272,.T.);
#323=FACE_BOUND('',#273,.T.);
#324=FACE_BOUND('',#274,.T.);
#325=FACE_BOUND('',#275,.T.);
#326=FACE_BOUND('',#276,.T.);
#327=FACE_BOUND('',#277,.T.);
#328=FACE_BOUND('',#278,.T.);
#329=FACE_BOUND('',#279,.T.);
#330=FACE_BOUND('',#280,.T.);
#331=FACE_BOUND('',#281,.T.);
#332=PLANE('',#385);
#333=PLANE('',#394);
#334=PLANE('',#400);
#335=PLANE('',#402);
#336=PLANE('',#408);
#337=PLANE('',#415);
#338=PLANE('',#417);
#339=PLANE('',#423);
#340=PLANE('',#425);
#341=PLANE('',#426);
#342=ADVANCED_FACE('',(#282,#283,#284,#285,#286),#332,.F.);
#343=ADVANCED_FACE('',(#287),#333,.T.);
#344=ADVANCED_FACE('',(#288,#289),#28,.F.);
#345=ADVANCED_FACE('',(#290,#291),#29,.T.);
#346=ADVANCED_FACE('',(#292,#293),#334,.F.);
#347=ADVANCED_FACE('',(#294),#335,.F.);
#348=ADVANCED_FACE('',(#295,#296),#30,.T.);
#349=ADVANCED_FACE('',(#297,#298),#31,.F.);
#350=ADVANCED_FACE('',(#299,#300),#336,.F.);
#351=ADVANCED_FACE('',(#301,#302),#32,.F.);
#352=ADVANCED_FACE('',(#303,#304),#33,.T.);
#353=ADVANCED_FACE('',(#305,#306),#337,.F.);
#354=ADVANCED_FACE('',(#307),#338,.F.);
#355=ADVANCED_FACE('',(#308,#309),#34,.T.);
#356=ADVANCED_FACE('',(#310,#311),#35,.F.);
#357=ADVANCED_FACE('',(#312,#313),#339,.F.);
#358=ADVANCED_FACE('',(#314),#340,.F.);
#359=ADVANCED_FACE('',(#315),#341,.F.);
#360=ADVANCED_FACE('',(#316),#24,.T.);
#361=ADVANCED_FACE('',(#317),#36,.T.);
#362=ADVANCED_FACE('',(#318),#37,.T.);
#363=ADVANCED_FACE('',(#319),#25,.T.);
#364=ADVANCED_FACE('',(#320),#26,.T.);
#365=ADVANCED_FACE('',(#321),#38,.T.);
#366=ADVANCED_FACE('',(#322),#39,.T.);
#367=ADVANCED_FACE('',(#323),#27,.T.);
#368=ADVANCED_FACE('',(#324,#325),#12,.F.);
#369=ADVANCED_FACE('',(#326,#327),#13,.F.);
#370=ADVANCED_FACE('',(#328,#329),#14,.F.);
#371=ADVANCED_FACE('',(#330,#331),#15,.F.);
#372=CLOSED_SHELL('',(#342,#343,#344,#345,#346,#347,#348,#349,#350,#351,
#352,#353,#354,#355,#356,#357,#358,#359,#360,#361,#362,#363,#364,#365,#366,
#367,#368,#369,#370,#371));
#373=STYLED_ITEM('',(#374),#381);
#374=PRESENTATION_STYLE_ASSIGNMENT((#375));
#375=SURFACE_STYLE_USAGE(.BOTH.,#376);
#376=SURFACE_SIDE_STYLE('',(#377));
#377=SURFACE_STYLE_FILL_AREA(#378);
#378=FILL_AREA_STYLE('',(#379));
#379=FILL_AREA_STYLE_COLOUR('',#380);
#380=COLOUR_RGB('',0.980392156862745,0.713725490196078,0.00392156862745098);
#381=MANIFOLD_SOLID_BREP('Cap',#372);
#382=SHAPE_DEFINITION_REPRESENTATION(#758,#383);
#383=SHAPE_REPRESENTATION('Cap',(#384),#753);
#384=AXIS2_PLACEMENT_3D('',#569,#443,#444);
#385=AXIS2_PLACEMENT_3D('',#570,#445,#446);
#386=AXIS2_PLACEMENT_3D('',#571,#447,#448);
#387=AXIS2_PLACEMENT_3D('',#573,#449,#450);
#388=AXIS2_PLACEMENT_3D('',#575,#451,#452);
#389=AXIS2_PLACEMENT_3D('',#580,#454,#455);
#390=AXIS2_PLACEMENT_3D('',#584,#457,#458);
#391=AXIS2_PLACEMENT_3D('',#588,#460,#461);
#392=AXIS2_PLACEMENT_3D('',#591,#463,#464);
#393=AXIS2_PLACEMENT_3D('',#593,#465,#466);
#394=AXIS2_PLACEMENT_3D('',#595,#467,#468);
#395=AXIS2_PLACEMENT_3D('',#604,#473,#474);
#396=AXIS2_PLACEMENT_3D('',#605,#475,#476);
#397=AXIS2_PLACEMENT_3D('',#607,#477,#478);
#398=AXIS2_PLACEMENT_3D('',#609,#479,#480);
#399=AXIS2_PLACEMENT_3D('',#610,#481,#482);
#400=AXIS2_PLACEMENT_3D('',#612,#483,#484);
#401=AXIS2_PLACEMENT_3D('',#613,#485,#486);
#402=AXIS2_PLACEMENT_3D('',#615,#487,#488);
#403=AXIS2_PLACEMENT_3D('',#616,#489,#490);
#404=AXIS2_PLACEMENT_3D('',#617,#491,#492);
#405=AXIS2_PLACEMENT_3D('',#619,#493,#494);
#406=AXIS2_PLACEMENT_3D('',#620,#495,#496);
#407=AXIS2_PLACEMENT_3D('',#622,#497,#498);
#408=AXIS2_PLACEMENT_3D('',#624,#499,#500);
#409=AXIS2_PLACEMENT_3D('',#625,#501,#502);
#410=AXIS2_PLACEMENT_3D('',#627,#503,#504);
#411=AXIS2_PLACEMENT_3D('',#628,#505,#506);
#412=AXIS2_PLACEMENT_3D('',#630,#507,#508);
#413=AXIS2_PLACEMENT_3D('',#632,#509,#510);
#414=AXIS2_PLACEMENT_3D('',#633,#511,#512);
#415=AXIS2_PLACEMENT_3D('',#635,#513,#514);
#416=AXIS2_PLACEMENT_3D('',#636,#515,#516);
#417=AXIS2_PLACEMENT_3D('',#638,#517,#518);
#418=AXIS2_PLACEMENT_3D('',#639,#519,#520);
#419=AXIS2_PLACEMENT_3D('',#640,#521,#522);
#420=AXIS2_PLACEMENT_3D('',#642,#523,#524);
#421=AXIS2_PLACEMENT_3D('',#643,#525,#526);
#422=AXIS2_PLACEMENT_3D('',#645,#527,#528);
#423=AXIS2_PLACEMENT_3D('',#647,#529,#530);
#424=AXIS2_PLACEMENT_3D('',#648,#531,#532);
#425=AXIS2_PLACEMENT_3D('',#650,#533,#534);
#426=AXIS2_PLACEMENT_3D('',#651,#535,#536);
#427=AXIS2_PLACEMENT_3D('',#673,#537,#538);
#428=AXIS2_PLACEMENT_3D('',#674,#539,#540);
#429=AXIS2_PLACEMENT_3D('',#675,#541,#542);
#430=AXIS2_PLACEMENT_3D('',#676,#543,#544);
#431=AXIS2_PLACEMENT_3D('',#677,#545,#546);
#432=AXIS2_PLACEMENT_3D('',#678,#547,#548);
#433=AXIS2_PLACEMENT_3D('',#700,#549,#550);
#434=AXIS2_PLACEMENT_3D('',#722,#551,#552);
#435=AXIS2_PLACEMENT_3D('',#723,#553,#554);
#436=AXIS2_PLACEMENT_3D('',#724,#555,#556);
#437=AXIS2_PLACEMENT_3D('',#725,#557,#558);
#438=AXIS2_PLACEMENT_3D('',#726,#559,#560);
#439=AXIS2_PLACEMENT_3D('',#748,#561,#562);
#440=AXIS2_PLACEMENT_3D('',#749,#563,#564);
#441=AXIS2_PLACEMENT_3D('',#750,#565,#566);
#442=AXIS2_PLACEMENT_3D('',#751,#567,#568);
#443=DIRECTION('',(0.,0.,1.));
#444=DIRECTION('',(1.,0.,0.));
#445=DIRECTION('',(0.,0.,1.));
#446=DIRECTION('',(1.,0.,0.));
#447=DIRECTION('',(0.,0.,-1.));
#448=DIRECTION('',(1.,0.,0.));
#449=DIRECTION('',(0.,0.,1.));
#450=DIRECTION('',(1.,0.,0.));
#451=DIRECTION('',(0.,0.,1.));
#452=DIRECTION('',(1.,0.,0.));
#453=DIRECTION('',(0.994521895368273,0.104528463267659,0.));
#454=DIRECTION('',(0.,0.,1.));
#455=DIRECTION('',(1.,0.,0.));
#456=DIRECTION('',(-0.104528463267654,0.994521895368273,0.));
#457=DIRECTION('',(0.,0.,1.));
#458=DIRECTION('',(1.,0.,0.));
#459=DIRECTION('',(-0.994521895368273,-0.104528463267654,0.));
#460=DIRECTION('',(0.,0.,1.));
#461=DIRECTION('',(1.,0.,0.));
#462=DIRECTION('',(-0.104528463267654,0.994521895368273,0.));
#463=DIRECTION('',(0.,0.,1.));
#464=DIRECTION('',(1.,0.,0.));
#465=DIRECTION('',(0.,0.,-1.));
#466=DIRECTION('',(1.,0.,0.));
#467=DIRECTION('',(0.,0.,1.));
#468=DIRECTION('',(1.,0.,0.));
#469=DIRECTION('',(0.994521895368273,0.104528463267659,0.));
#470=DIRECTION('',(-0.104528463267654,0.994521895368273,0.));
#471=DIRECTION('',(-0.994521895368273,-0.104528463267654,0.));
#472=DIRECTION('',(-0.104528463267654,0.994521895368273,0.));
#473=DIRECTION('',(0.,0.,1.));
#474=DIRECTION('',(1.,0.,0.));
#475=DIRECTION('',(0.,0.,1.));
#476=DIRECTION('',(1.,0.,0.));
#477=DIRECTION('',(0.,0.,1.));
#478=DIRECTION('',(1.,0.,0.));
#479=DIRECTION('',(0.,0.,1.));
#480=DIRECTION('',(1.,0.,0.));
#481=DIRECTION('',(0.,0.,1.));
#482=DIRECTION('',(1.,0.,0.));
#483=DIRECTION('',(0.,0.,1.));
#484=DIRECTION('',(1.,0.,0.));
#485=DIRECTION('',(0.,0.,1.));
#486=DIRECTION('',(1.,0.,0.));
#487=DIRECTION('',(0.,0.,1.));
#488=DIRECTION('',(1.,0.,0.));
#489=DIRECTION('',(0.,0.,1.));
#490=DIRECTION('',(1.,0.,0.));
#491=DIRECTION('',(0.,0.,-1.));
#492=DIRECTION('',(1.,0.,0.));
#493=DIRECTION('',(0.,0.,1.));
#494=DIRECTION('',(1.,0.,0.));
#495=DIRECTION('',(0.,0.,1.));
#496=DIRECTION('',(1.,0.,0.));
#497=DIRECTION('',(0.,0.,-1.));
#498=DIRECTION('',(1.,0.,0.));
#499=DIRECTION('',(0.,0.,1.));
#500=DIRECTION('',(1.,0.,0.));
#501=DIRECTION('',(0.,0.,1.));
#502=DIRECTION('',(1.,0.,0.));
#503=DIRECTION('',(0.,0.,1.));
#504=DIRECTION('',(1.,0.,0.));
#505=DIRECTION('',(0.,0.,1.));
#506=DIRECTION('',(1.,0.,0.));
#507=DIRECTION('',(0.,0.,1.));
#508=DIRECTION('',(1.,0.,0.));
#509=DIRECTION('',(0.,0.,1.));
#510=DIRECTION('',(1.,0.,0.));
#511=DIRECTION('',(0.,0.,1.));
#512=DIRECTION('',(1.,0.,0.));
#513=DIRECTION('',(0.,0.,1.));
#514=DIRECTION('',(1.,0.,0.));
#515=DIRECTION('',(0.,0.,1.));
#516=DIRECTION('',(1.,0.,0.));
#517=DIRECTION('',(0.,0.,1.));
#518=DIRECTION('',(1.,0.,0.));
#519=DIRECTION('',(0.,0.,1.));
#520=DIRECTION('',(1.,0.,0.));
#521=DIRECTION('',(0.,0.,-1.));
#522=DIRECTION('',(1.,0.,0.));
#523=DIRECTION('',(0.,0.,1.));
#524=DIRECTION('',(1.,0.,0.));
#525=DIRECTION('',(0.,0.,1.));
#526=DIRECTION('',(1.,0.,0.));
#527=DIRECTION('',(0.,0.,-1.));
#528=DIRECTION('',(1.,0.,0.));
#529=DIRECTION('',(0.,0.,1.));
#530=DIRECTION('',(1.,0.,0.));
#531=DIRECTION('',(0.,0.,1.));
#532=DIRECTION('',(1.,0.,0.));
#533=DIRECTION('',(0.,0.,1.));
#534=DIRECTION('',(1.,0.,0.));
#535=DIRECTION('',(0.,0.,1.));
#536=DIRECTION('',(1.,0.,0.));
#537=DIRECTION('',(0.992842279944909,0.119432856257377,0.));
#538=DIRECTION('',(0.119432856257377,-0.992842279944909,0.));
#539=DIRECTION('',(-0.0896005553415622,0.995977781118878,0.));
#540=DIRECTION('',(0.995977781118878,0.0896005553415622,0.));
#541=DIRECTION('',(0.104528463267654,-0.994521895368273,0.));
#542=DIRECTION('',(0.994521895368273,0.104528463267654,0.));
#543=DIRECTION('',(-0.119432856257595,0.992842279944882,0.));
#544=DIRECTION('',(0.992842279944882,0.119432856257595,0.));
#545=DIRECTION('',(-0.994521895368273,-0.104528463267654,0.));
#546=DIRECTION('',(0.104528463267654,-0.994521895368273,0.));
#547=DIRECTION('',(0.995977781118868,0.0896005553416782,0.));
#548=DIRECTION('',(0.0896005553416782,-0.995977781118868,0.));
#549=DIRECTION('',(-0.995977781118872,-0.0896005553416268,0.));
#550=DIRECTION('',(-0.0896005553416268,0.995977781118872,0.));
#551=DIRECTION('',(0.119432856257481,-0.992842279944896,0.));
#552=DIRECTION('',(-0.992842279944896,-0.119432856257481,0.));
#553=DIRECTION('',(0.994521895368273,0.104528463267659,0.));
#554=DIRECTION('',(-0.104528463267659,0.994521895368273,0.));
#555=DIRECTION('',(-0.99284227994491,-0.11943285625737,0.));
#556=DIRECTION('',(-0.11943285625737,0.99284227994491,0.));
#557=DIRECTION('',(-0.104528463267654,0.994521895368273,0.));
#558=DIRECTION('',(-0.994521895368273,-0.104528463267654,0.));
#559=DIRECTION('',(0.0896005553416505,-0.99597778111887,0.));
#560=DIRECTION('',(-0.99597778111887,-0.0896005553416505,0.));
#561=DIRECTION('',(0.,0.,-1.));
#562=DIRECTION('',(-1.,0.,0.));
#563=DIRECTION('',(0.,0.,-1.));
#564=DIRECTION('',(-1.,0.,0.));
#565=DIRECTION('',(0.,0.,-1.));
#566=DIRECTION('',(-1.,0.,0.));
#567=DIRECTION('',(0.,0.,-1.));
#568=DIRECTION('',(-1.,0.,0.));
#569=CARTESIAN_POINT('',(0.,0.,0.));
#570=CARTESIAN_POINT('',(0.,0.00750638940984667,0.00935));
#571=CARTESIAN_POINT('',(-0.119177807543374,0.0673166233689564,0.00935));
#572=CARTESIAN_POINT('',(-0.117107807543374,0.0673166233689564,0.00935));
#573=CARTESIAN_POINT('',(-0.104021293857961,0.0689096371491555,0.00935));
#574=CARTESIAN_POINT('',(-0.101951293857961,0.0689096371491555,0.00935));
#575=CARTESIAN_POINT('',(-0.120573601498842,0.0684469150277242,0.00935));
#576=CARTESIAN_POINT('',(-0.120779522571479,0.0704061231615997,0.00935));
#577=CARTESIAN_POINT('',(-0.122532809632717,0.0682409939550869,0.00935));
#578=CARTESIAN_POINT('',(-0.11931261309645,0.0705603015601766,0.00935));
#579=CARTESIAN_POINT('',(-0.103096923271831,0.0722646392384986,0.00935));
#580=CARTESIAN_POINT('',(-0.102891002199194,0.070305431104623,0.00935));
#581=CARTESIAN_POINT('',(-0.100931794065318,0.0705113521772603,0.00935));
#582=CARTESIAN_POINT('',(-0.0987414001175445,0.0496711458598183,0.00935));
#583=CARTESIAN_POINT('',(-0.0980112688016199,0.0427244104206709,0.00935));
#584=CARTESIAN_POINT('',(-0.0999704769354955,0.0425184893480336,0.00935));
#585=CARTESIAN_POINT('',(-0.0997645558628582,0.0405592812141581,0.00935));
#586=CARTESIAN_POINT('',(-0.108605855512682,0.0396300231757086,0.00935));
#587=CARTESIAN_POINT('',(-0.117447155162506,0.0387007651372591,0.00935));
#588=CARTESIAN_POINT('',(-0.117653076235143,0.0406599732711347,0.00935));
#589=CARTESIAN_POINT('',(-0.119612284369019,0.0404540521984975,0.00935));
#590=CARTESIAN_POINT('',(-0.121072547000868,0.0543475230767922,0.00935));
#591=CARTESIAN_POINT('',(-0.116522784576375,0.0420557672266023,0.00935));
#592=CARTESIAN_POINT('',(-0.114452784576375,0.0420557672266023,0.00935));
#593=CARTESIAN_POINT('',(-0.101366270890963,0.0436487810068013,0.00935));
#594=CARTESIAN_POINT('',(-0.099296270890963,0.0436487810068013,0.00935));
#595=CARTESIAN_POINT('',(0.,0.00750638940984667,0.01135));
#596=CARTESIAN_POINT('',(-0.00764939924682823,0.0802855617000224,0.01135));
#597=CARTESIAN_POINT('',(-0.102917702002157,0.0702724595938641,0.01135));
#598=CARTESIAN_POINT('',(-0.120540629988083,0.0684202152247612,0.01135));
#599=CARTESIAN_POINT('',(-0.112891230741255,-0.00435895706541401,0.01135));
#600=CARTESIAN_POINT('',(-0.11762637643218,0.0406929447818937,0.01135));
#601=CARTESIAN_POINT('',(-0.00473514569092561,0.0525582912571544,0.01135));
#602=CARTESIAN_POINT('',(-0.100003448446254,0.0425451891509965,0.01135));
#603=CARTESIAN_POINT('',(-0.102920837856055,0.0703022952507251,0.01135));
#604=CARTESIAN_POINT('',(-0.104021293857961,0.0689096371491555,0.00735));
#605=CARTESIAN_POINT('',(-0.104021293857961,0.0689096371491555,0.00775));
#606=CARTESIAN_POINT('',(-0.102751293857961,0.0689096371491555,0.00775));
#607=CARTESIAN_POINT('',(-0.104021293857961,0.0689096371491555,0.00935));
#608=CARTESIAN_POINT('',(-0.102751293857961,0.0689096371491555,0.00935));
#609=CARTESIAN_POINT('',(-0.104021293857961,0.0689096371491555,0.00735));
#610=CARTESIAN_POINT('',(-0.104021293857961,0.0689096371491555,0.00735));
#611=CARTESIAN_POINT('',(-0.101951293857961,0.0689096371491555,0.00735));
#612=CARTESIAN_POINT('',(0.,0.00750638940984667,0.00735));
#613=CARTESIAN_POINT('',(-0.104021293857961,0.0689096371491555,0.00735));
#614=CARTESIAN_POINT('',(-0.102351293857961,0.0689096371491555,0.00735));
#615=CARTESIAN_POINT('',(0.,0.00750638940984667,0.00935));
#616=CARTESIAN_POINT('',(-0.119177807543374,0.0673166233689564,0.00735));
#617=CARTESIAN_POINT('',(-0.119177807543374,0.0673166233689564,0.00735));
#618=CARTESIAN_POINT('',(-0.117107807543374,0.0673166233689564,0.00735));
#619=CARTESIAN_POINT('',(-0.119177807543374,0.0673166233689564,0.00735));
#620=CARTESIAN_POINT('',(-0.119177807543374,0.0673166233689564,0.00775));
#621=CARTESIAN_POINT('',(-0.117907807543374,0.0673166233689564,0.00775));
#622=CARTESIAN_POINT('',(-0.119177807543374,0.0673166233689564,0.00935));
#623=CARTESIAN_POINT('',(-0.117907807543374,0.0673166233689564,0.00935));
#624=CARTESIAN_POINT('',(0.,0.00750638940984667,0.00735));
#625=CARTESIAN_POINT('',(-0.119177807543374,0.0673166233689564,0.00735));
#626=CARTESIAN_POINT('',(-0.117507807543374,0.0673166233689564,0.00735));
#627=CARTESIAN_POINT('',(-0.116522784576375,0.0420557672266023,0.00735));
#628=CARTESIAN_POINT('',(-0.116522784576375,0.0420557672266023,0.00775));
#629=CARTESIAN_POINT('',(-0.115252784576375,0.0420557672266023,0.00775));
#630=CARTESIAN_POINT('',(-0.116522784576375,0.0420557672266023,0.00935));
#631=CARTESIAN_POINT('',(-0.115252784576375,0.0420557672266023,0.00935));
#632=CARTESIAN_POINT('',(-0.116522784576375,0.0420557672266023,0.00735));
#633=CARTESIAN_POINT('',(-0.116522784576375,0.0420557672266023,0.00735));
#634=CARTESIAN_POINT('',(-0.114452784576375,0.0420557672266023,0.00735));
#635=CARTESIAN_POINT('',(0.,0.00750638940984667,0.00735));
#636=CARTESIAN_POINT('',(-0.116522784576375,0.0420557672266023,0.00735));
#637=CARTESIAN_POINT('',(-0.114852784576375,0.0420557672266023,0.00735));
#638=CARTESIAN_POINT('',(0.,0.00750638940984667,0.00935));
#639=CARTESIAN_POINT('',(-0.101366270890963,0.0436487810068013,0.00735));
#640=CARTESIAN_POINT('',(-0.101366270890963,0.0436487810068013,0.00735));
#641=CARTESIAN_POINT('',(-0.099296270890963,0.0436487810068013,0.00735));
#642=CARTESIAN_POINT('',(-0.101366270890963,0.0436487810068013,0.00735));
#643=CARTESIAN_POINT('',(-0.101366270890963,0.0436487810068013,0.00775));
#644=CARTESIAN_POINT('',(-0.100096270890963,0.0436487810068013,0.00775));
#645=CARTESIAN_POINT('',(-0.101366270890963,0.0436487810068013,0.00935));
#646=CARTESIAN_POINT('',(-0.100096270890963,0.0436487810068013,0.00935));
#647=CARTESIAN_POINT('',(0.,0.00750638940984667,0.00735));
#648=CARTESIAN_POINT('',(-0.101366270890963,0.0436487810068013,0.00735));
#649=CARTESIAN_POINT('',(-0.099696270890963,0.0436487810068013,0.00735));
#650=CARTESIAN_POINT('',(0.,0.00750638940984667,0.00935));
#651=CARTESIAN_POINT('',(0.,0.00750638940984667,0.00935));
#652=CARTESIAN_POINT('',(-0.09801126880162,0.0427244104206726,0.00935));
#653=CARTESIAN_POINT('',(-0.0978053477289808,0.0407652022867959,0.00935));
#654=CARTESIAN_POINT('',(-0.0997645558628577,0.0405592812141581,0.00935));
#655=CARTESIAN_POINT('',(-0.0980112688054201,0.0427244104568282,0.0096118963128313));
#656=CARTESIAN_POINT('',(-0.0978054180190046,0.0407652592065353,0.00987042294981096));
#657=CARTESIAN_POINT('',(-0.0997645558990126,0.0405592812103581,0.00961189631283244));
#658=CARTESIAN_POINT('',(-0.0981150008430726,0.0427150784199256,0.0101352311173552));
#659=CARTESIAN_POINT('',(-0.0981543633419869,0.0410478295575449,0.0108013591898245));
#660=CARTESIAN_POINT('',(-0.0997769948928471,0.0406626866936791,0.0101352311173581));
#661=CARTESIAN_POINT('',(-0.0985580805260569,0.0426752179280667,0.0108010478083767));
#662=CARTESIAN_POINT('',(-0.0989661633111362,0.0417052122107106,0.0112856976031842));
#663=CARTESIAN_POINT('',(-0.0998301268944286,0.0411043714847858,0.0108010478083814));
#664=CARTESIAN_POINT('',(-0.0992212653138293,0.0426155562245171,0.0112458590233559));
#665=CARTESIAN_POINT('',(-0.0995530872488855,0.0421804938442033,0.011352088244357));
#666=CARTESIAN_POINT('',(-0.099909652812795,0.0417654684594572,0.0112458590233592));
#667=CARTESIAN_POINT('',(-0.0997426244581696,0.0425686535039413,0.0113499999999991));
#668=CARTESIAN_POINT('',(-0.0998574361429524,0.0424269507191345,0.0113500024817418));
#669=CARTESIAN_POINT('',(-0.0999721716904197,0.0422851862795461,0.0113500000000002));
#670=CARTESIAN_POINT('',(-0.100003448446248,0.0425451891509993,0.01135));
#671=CARTESIAN_POINT('',(-0.100003448446251,0.0425451891509987,0.01135));
#672=CARTESIAN_POINT('',(-0.100003448446254,0.042545189150998,0.01135));
#673=CARTESIAN_POINT('',(-0.100003448446254,0.0425451891509965,0.00935));
#674=CARTESIAN_POINT('',(-0.100003448446254,0.0425451891509965,0.00935));
#675=CARTESIAN_POINT('',(-0.0952683027553289,-0.00250671269631114,0.00935));
#676=CARTESIAN_POINT('',(-0.102917702002157,0.0702724595938641,0.00935));
#677=CARTESIAN_POINT('',(-0.108814912439217,0.0416190669664451,0.00935));
#678=CARTESIAN_POINT('',(-0.11762637643218,0.0406929447818937,0.00935));
#679=CARTESIAN_POINT('',(-0.103096923271831,0.0722646392384986,0.00935));
#680=CARTESIAN_POINT('',(-0.101137715137959,0.072470560311136,0.00935));
#681=CARTESIAN_POINT('',(-0.100931794065318,0.0705113521772639,0.00935));
#682=CARTESIAN_POINT('',(-0.103096923307987,0.0722646392346985,0.00961189631283263));
#683=CARTESIAN_POINT('',(-0.101137772057698,0.0724704900211123,0.00987042294980995));
#684=CARTESIAN_POINT('',(-0.100931794061518,0.0705113521411084,0.00961189631283118));
#685=CARTESIAN_POINT('',(-0.103087591271083,0.0721609071970451,0.0101352311173592));
#686=CARTESIAN_POINT('',(-0.101420342408706,0.0721215446981295,0.0108013591898216));
#687=CARTESIAN_POINT('',(-0.101035199544838,0.0704989131472754,0.0101352311173551));
#688=CARTESIAN_POINT('',(-0.103047730779226,0.071717827514057,0.010801047808382));
#689=CARTESIAN_POINT('',(-0.102077725061869,0.0713097447289802,0.0112856976031826));
#690=CARTESIAN_POINT('',(-0.101476884335943,0.0704457811456929,0.0108010478083766));
#691=CARTESIAN_POINT('',(-0.102988069075673,0.0710546427262805,0.0112458590233598));
#692=CARTESIAN_POINT('',(-0.102553006695356,0.0707228207912311,0.0113520882443555));
#693=CARTESIAN_POINT('',(-0.102137981310607,0.0703662552273296,0.0112458590233556));
#694=CARTESIAN_POINT('',(-0.102941166355101,0.0705332835819399,0.0113500000000004));
#695=CARTESIAN_POINT('',(-0.102799463570293,0.070418471897161,0.0113500024817424));
#696=CARTESIAN_POINT('',(-0.102657699130703,0.0703037363496974,0.011349999999999));
#697=CARTESIAN_POINT('',(-0.102917702002157,0.0702724595938609,0.01135));
#698=CARTESIAN_POINT('',(-0.102917702002153,0.0702724595938648,0.01135));
#699=CARTESIAN_POINT('',(-0.10291770200215,0.0702724595938687,0.01135));
#700=CARTESIAN_POINT('',(-0.102917702002157,0.0702724595938641,0.00935));
#701=CARTESIAN_POINT('',(-0.117447155162507,0.0387007651372591,0.00935));
#702=CARTESIAN_POINT('',(-0.119406363296381,0.0384948440646223,0.00935));
#703=CARTESIAN_POINT('',(-0.119612284369019,0.040454052198497,0.00935));
#704=CARTESIAN_POINT('',(-0.117447155126351,0.0387007651410592,0.00961189631283243));
#705=CARTESIAN_POINT('',(-0.119406306376641,0.0384949143546459,0.00987042294981016));
#706=CARTESIAN_POINT('',(-0.119612284372819,0.0404540522346509,0.00961189631283118));
#707=CARTESIAN_POINT('',(-0.117456487163254,0.0388044971787125,0.0101352311173583));
#708=CARTESIAN_POINT('',(-0.119123736025634,0.038843859677629,0.0108013591898226));
#709=CARTESIAN_POINT('',(-0.119508878889499,0.0404664912284866,0.010135231117355));
#710=CARTESIAN_POINT('',(-0.117496347655112,0.0392475768616996,0.0108010478083814));
#711=CARTESIAN_POINT('',(-0.11846635337247,0.0396556596467778,0.0112856976031838));
#712=CARTESIAN_POINT('',(-0.119067194098394,0.040519623230067,0.0108010478083768));
#713=CARTESIAN_POINT('',(-0.117556009358665,0.0399107616494779,0.0112458590233589));
#714=CARTESIAN_POINT('',(-0.117991071738982,0.0402425835845297,0.0113520882443544));
#715=CARTESIAN_POINT('',(-0.11840609712373,0.0405991491484339,0.0112458590233556));
#716=CARTESIAN_POINT('',(-0.117602912079238,0.0404321207938106,0.0113500000000002));
#717=CARTESIAN_POINT('',(-0.117744614864045,0.0405469324785913,0.0113500024817454));
#718=CARTESIAN_POINT('',(-0.117886379303635,0.0406616680260568,0.011349999999999));
#719=CARTESIAN_POINT('',(-0.117626376432181,0.0406929447818949,0.01135));
#720=CARTESIAN_POINT('',(-0.117626376432184,0.0406929447818937,0.01135));
#721=CARTESIAN_POINT('',(-0.117626376432187,0.0406929447818924,0.01135));
#722=CARTESIAN_POINT('',(-0.11762637643218,0.0406929447818937,0.00935));
#723=CARTESIAN_POINT('',(-0.119103556169914,0.0685712577694401,0.00935));
#724=CARTESIAN_POINT('',(-0.120540629988083,0.0684202152247612,0.00935));
#725=CARTESIAN_POINT('',(-0.119083503210131,0.0545565800033275,0.00935));
#726=CARTESIAN_POINT('',(-0.120540629988083,0.0684202152247612,0.00935));
#727=CARTESIAN_POINT('',(-0.122532809632717,0.0682409939550875,0.00935));
#728=CARTESIAN_POINT('',(-0.122738730705354,0.0702002020889625,0.00935));
#729=CARTESIAN_POINT('',(-0.120779522571479,0.0704061231615997,0.00935));
#730=CARTESIAN_POINT('',(-0.122532809628917,0.0682409939189321,0.00961189631283141));
#731=CARTESIAN_POINT('',(-0.12273866041533,0.0702001451692232,0.00987042294981055));
#732=CARTESIAN_POINT('',(-0.120779522535324,0.0704061231653998,0.0096118963128324));
#733=CARTESIAN_POINT('',(-0.122429077591265,0.068250325955835,0.0101352311173551));
#734=CARTESIAN_POINT('',(-0.122389715092348,0.0699175748182141,0.010801359189823));
#735=CARTESIAN_POINT('',(-0.12076708354149,0.0703027176820789,0.0101352311173582));
#736=CARTESIAN_POINT('',(-0.121985997908281,0.068290186447693,0.0108010478083765));
#737=CARTESIAN_POINT('',(-0.121577915123201,0.0692601921650478,0.0112856976031837));
#738=CARTESIAN_POINT('',(-0.120713951539908,0.0698610328909712,0.0108010478083813));
#739=CARTESIAN_POINT('',(-0.121322813120508,0.0683498481512443,0.0112458590233558));
#740=CARTESIAN_POINT('',(-0.120990991185451,0.0687849105315581,0.0113520882443553));
#741=CARTESIAN_POINT('',(-0.120634425621542,0.0691999359163041,0.0112458590233587));
#742=CARTESIAN_POINT('',(-0.120801453976169,0.0683967508718189,0.011349999999999));
#743=CARTESIAN_POINT('',(-0.120686642291385,0.0685384536566221,0.0113500024817438));
#744=CARTESIAN_POINT('',(-0.120571906743917,0.0686802180962072,0.0113500000000001));
#745=CARTESIAN_POINT('',(-0.12054062998809,0.068420215224761,0.01135));
#746=CARTESIAN_POINT('',(-0.120540629988086,0.0684202152247606,0.01135));
#747=CARTESIAN_POINT('',(-0.120540629988082,0.0684202152247603,0.01135));
#748=CARTESIAN_POINT('',(-0.101366270890963,0.0436487810068013,0.00775));
#749=CARTESIAN_POINT('',(-0.116522784576375,0.0420557672266023,0.00735));
#750=CARTESIAN_POINT('',(-0.119177807543374,0.0673166233689564,0.00775));
#751=CARTESIAN_POINT('',(-0.104021293857961,0.0689096371491555,0.00735));
#752=MECHANICAL_DESIGN_GEOMETRIC_PRESENTATION_REPRESENTATION('',(#373),
#753);
#753=(
GEOMETRIC_REPRESENTATION_CONTEXT(3)
GLOBAL_UNCERTAINTY_ASSIGNED_CONTEXT((#754))
GLOBAL_UNIT_ASSIGNED_CONTEXT((#757,#756,#755))
REPRESENTATION_CONTEXT('Cap','TOP_LEVEL_ASSEMBLY_PART')
);
#754=UNCERTAINTY_MEASURE_WITH_UNIT(LENGTH_MEASURE(2.E-5),#757,
'DISTANCE_ACCURACY_VALUE','Maximum Tolerance applied to model');
#755=(
NAMED_UNIT(*)
SI_UNIT($,.STERADIAN.)
SOLID_ANGLE_UNIT()
);
#756=(
NAMED_UNIT(*)
PLANE_ANGLE_UNIT()
SI_UNIT($,.RADIAN.)
);
#757=(
LENGTH_UNIT()
NAMED_UNIT(*)
SI_UNIT($,.METRE.)
);
#758=PRODUCT_DEFINITION_SHAPE('','',#759);
#759=PRODUCT_DEFINITION('','',#761,#760);
#760=PRODUCT_DEFINITION_CONTEXT('',#767,'design');
#761=PRODUCT_DEFINITION_FORMATION_WITH_SPECIFIED_SOURCE('','',#763,
 .NOT_KNOWN.);
#762=PRODUCT_RELATED_PRODUCT_CATEGORY('','',(#763));
#763=PRODUCT('Cap','Cap','Cap',(#765));
#764=PRODUCT_CATEGORY('','');
#765=PRODUCT_CONTEXT('',#767,'mechanical');
#766=APPLICATION_PROTOCOL_DEFINITION('international standard',
'ap242_managed_model_based_3d_engineering',2020,#767);
#767=APPLICATION_CONTEXT('managed model based 3d engineering');
ENDSEC;
END-ISO-10303-21;
